<?xml version="1.0" encoding="UTF-8"?>
<svg version="1.1" xmlns="http://www.w3.org/2000/svg" width="525" height="134">
<path d="M0 0 C1.16015625 -0.02900391 2.3203125 -0.05800781 3.515625 -0.08789062 C10.54032567 -0.13954284 16.54662395 0.28900664 22.5 4.3125 C26.39754036 8.40802131 27.81178055 12.1634775 28.0625 17.8125 C27.79696576 22.98682928 26.70582434 27.18378684 23.5 31.3125 C21.56359062 32.97970124 19.7623676 34.07848131 17.5 35.3125 C17.86351562 35.97894531 18.22703125 36.64539063 18.6015625 37.33203125 C22.234375 43.9921875 25.8671875 50.65234375 29.5 57.3125 C24.21733127 58.14660559 19.74953128 58.78636169 14.5 57.3125 C12.65403061 54.81052496 11.45635123 52.82948153 10.1875 50.0625 C9.85427734 49.39347656 9.52105469 48.72445312 9.17773438 48.03515625 C7.45013265 44.52477989 5.8959977 40.96902189 4.5 37.3125 C3.18 37.3125 1.86 37.3125 0.5 37.3125 C0.17 43.9125 -0.16 50.5125 -0.5 57.3125 C-9.5 58.4375 -9.5 58.4375 -13.5 57.3125 C-13.52312916 50.02828452 -13.54091801 42.7440769 -13.55181217 35.45983219 C-13.55703975 32.07778187 -13.56413511 28.6957566 -13.57543945 25.3137207 C-13.58834267 21.42920223 -13.59322924 17.54469403 -13.59765625 13.66015625 C-13.60281754 12.44038589 -13.60797882 11.22061554 -13.61329651 9.96388245 C-13.61337204 8.84279587 -13.61344757 7.72170929 -13.61352539 6.56665039 C-13.615746 5.57403702 -13.61796661 4.58142365 -13.62025452 3.55873108 C-13.3132022 -2.17669141 -4.33570346 0.0351924 0 0 Z M-0.5 11.3125 C-0.52685412 13.62493792 -0.54632841 15.9374627 -0.5625 18.25 C-0.57410156 19.53777344 -0.58570313 20.82554688 -0.59765625 22.15234375 C-0.86532549 25.17548403 -0.86532549 25.17548403 0.5 26.3125 C4.9819753 26.87737705 8.50666631 26.8193029 12.5625 24.75 C14.80094972 22.35706106 14.80094972 22.35706106 15 18.75 C14.77709692 15.40930812 14.77709692 15.40930812 13.1875 13.4375 C10.08844487 11.37146325 7.4208786 11.19770466 3.8125 11.25 C3.00425781 11.25902344 2.19601563 11.26804687 1.36328125 11.27734375 C0.74839844 11.28894531 0.13351563 11.30054688 -0.5 11.3125 Z " fill="#5045D6" transform="translate(148.5,42.6875)"/>
<path d="M0 0 C0.9590625 0.7115625 0.9590625 0.7115625 1.9375 1.4375 C2.2675 0.4475 2.5975 -0.5425 2.9375 -1.5625 C4.91659398 -1.58936553 6.89578971 -1.60883375 8.875 -1.625 C9.97714844 -1.63660156 11.07929688 -1.64820313 12.21484375 -1.66015625 C14.9375 -1.5625 14.9375 -1.5625 15.9375 -0.5625 C16.02624135 2.54001201 16.05268455 5.6201812 16.03515625 8.72265625 C16.0337413 9.65347519 16.03232635 10.58429413 16.03086853 11.5433197 C16.02525172 14.52891191 16.0126964 17.51443029 16 20.5 C15.99498716 22.51887913 15.99042388 24.53775943 15.98632812 26.55664062 C15.97527683 31.51695572 15.95800095 36.47721532 15.9375 41.4375 C11.15295243 42.76245164 6.69019962 43.02173321 1.9375 41.4375 C1.6075 40.7775 1.2775 40.1175 0.9375 39.4375 C0.050625 39.911875 -0.83625 40.38625 -1.75 40.875 C-7.21099484 43.45094096 -10.89695768 43.74015577 -16.71484375 42.29296875 C-22.06535071 40.34328319 -25.97217027 37.16092441 -29 32.375 C-32.09375126 23.82168769 -32.03119926 16.01654538 -28.31640625 7.66796875 C-25.19379904 2.11342446 -20.32925809 -0.37519069 -14.43359375 -2.125 C-9.19218394 -3.09211351 -4.7215547 -2.40895648 0 0 Z M-17.0625 13.4375 C-18.92045892 17.15341784 -18.49613222 21.38176339 -18.0625 25.4375 C-16.84725509 28.6446208 -16.84725509 28.6446208 -14.0625 30.4375 C-9.72678325 31.72365478 -6.3140662 31.97008136 -2.125 30.1875 C0.36059211 28.07851275 1.79536763 26.41259418 2.2734375 23.1328125 C2.33924557 18.80264152 2.37354058 16.17425822 0.125 12.375 C-2.73211645 9.84441114 -4.65374318 9.47534785 -8.4375 9.125 C-12.65584314 9.48865027 -14.11134992 10.48634992 -17.0625 13.4375 Z " fill="#4F43D6" transform="translate(421.0625,58.5625)"/>
<path d="M0 0 C5.41366238 3.47291549 8.50742428 7.77508128 10 14 C10 17.3 10 20.6 10 24 C-0.56 24 -11.12 24 -22 24 C-19.33604319 28.96030225 -19.33604319 28.96030225 -15 31 C-9.37395588 31.77496493 -5.76429438 31.13082202 -1 28 C2.05938334 28.09270859 2.96976339 28.97228311 5.25 31.0625 C6.11625 32.0215625 6.11625 32.0215625 7 33 C5.60802671 36.38256721 4.1974504 37.83688682 1.0625 39.6875 C0.37285156 40.10386719 -0.31679687 40.52023438 -1.02734375 40.94921875 C-7.02301337 44.14295168 -14.74773076 43.96632067 -21.1875 42.0625 C-26.93476235 39.53844457 -31.4817873 34.46587998 -33.98046875 28.76171875 C-35.76496248 22.01896728 -35.55677064 14.44527726 -32.3125 8.1875 C-24.11063096 -3.11777894 -12.53282186 -5.64891788 0 0 Z M-21 12 C-21.33 12.99 -21.66 13.98 -22 15 C-15.73 15 -9.46 15 -3 15 C-3.63715751 11.13326435 -3.63715751 11.13326435 -5.5625 9.25 C-11.50111114 6.20455839 -16.54932437 7.27958645 -21 12 Z " fill="#5046D4" transform="translate(216,59)"/>
<path d="M0 0 C5.79314124 4.20333949 9.19633323 8.60907522 10.5625 15.8125 C11.05465897 21.91527117 10.56208402 27.37161416 7.5625 32.8125 C1.82184958 39.49273792 -3.51674213 42.41566469 -12.3125 43.125 C-19.08921004 42.9276201 -25.66818076 40.7180855 -30.4375 35.8125 C-35.12033974 29.01841388 -36.11967673 22.91334866 -35.4375 14.8125 C-34.24377925 9.74796415 -32.19557015 5.46900069 -28.4375 1.8125 C-19.69602555 -3.52250297 -9.29818459 -5.50806744 0 0 Z M-20.4375 11.8125 C-23.26836382 16.05879573 -23.20057511 19.8286657 -22.4375 24.8125 C-19.92327015 28.54575038 -18.30385918 29.56046824 -14 30.8125 C-9.88416853 30.8125 -7.83520909 30.10397823 -4.4375 27.8125 C-2.01452649 24.83885069 -2.07854482 21.53809543 -2.18359375 17.77734375 C-2.56107468 14.85622208 -3.57891372 13.06935476 -5.4375 10.8125 C-10.46634157 7.17092507 -15.71391987 8.2698149 -20.4375 11.8125 Z " fill="#5045D5" transform="translate(355.4375,59.1875)"/>
<path d="M0 0 C1.79158489 -0.02696365 3.58328473 -0.04637917 5.375 -0.0625 C6.37273437 -0.07410156 7.37046875 -0.08570313 8.3984375 -0.09765625 C11 0 11 0 13 1 C13.96142578 3.22485352 13.96142578 3.22485352 14.9453125 6.12890625 C15.29980469 7.16337891 15.65429688 8.19785156 16.01953125 9.26367188 C16.38433594 10.35228516 16.74914062 11.44089844 17.125 12.5625 C17.49753906 13.65498047 17.87007812 14.74746094 18.25390625 15.87304688 C19.17587908 18.57986455 20.09090826 21.28883448 21 24 C22.72002348 21.41996478 23.64538852 19.49414786 24.65625 16.62109375 C24.95660156 15.78255859 25.25695312 14.94402344 25.56640625 14.08007812 C26.19002914 12.31488615 26.81242045 10.5492586 27.43359375 8.78320312 C27.73394531 7.94595703 28.03429687 7.10871094 28.34375 6.24609375 C28.74883789 5.09645142 28.74883789 5.09645142 29.16210938 3.92358398 C30 2 30 2 32 0 C34.8203125 -0.1953125 34.8203125 -0.1953125 38.125 -0.125 C39.22070312 -0.10695312 40.31640625 -0.08890625 41.4453125 -0.0703125 C42.70988281 -0.03550781 42.70988281 -0.03550781 44 0 C43.41678041 5.82263492 41.16454192 10.6549513 38.8125 15.9375 C37.99455456 17.8053163 37.17815842 19.6738118 36.36328125 21.54296875 C35.7612085 22.92234619 35.7612085 22.92234619 35.14697266 24.32958984 C33.01455096 29.29434688 31.05512347 34.32518309 29.09375 39.359375 C28 42 28 42 27 43 C24.98035801 43.07244053 22.95832876 43.08377188 20.9375 43.0625 C19.83277344 43.05347656 18.72804687 43.04445312 17.58984375 43.03515625 C16.73519531 43.02355469 15.88054687 43.01195312 15 43 C14.53944214 41.82195801 14.53944214 41.82195801 14.06958008 40.62011719 C12.90575462 37.64509519 11.74073082 34.67054579 10.57495117 31.69628906 C10.07513801 30.42042915 9.57577295 29.14439358 9.0769043 27.86816406 C8.35069152 26.01058054 7.62261266 24.15372691 6.89453125 22.296875 C6.41709473 21.07806641 5.9396582 19.85925781 5.44775391 18.60351562 C3.66164901 14.15783127 1.74845386 9.77248208 -0.20825195 5.39941406 C-1 3 -1 3 0 0 Z " fill="#4F44D3" transform="translate(228,57)"/>
<path d="M0 0 C3.96 0 7.92 0 12 0 C13.37995495 2.7599099 13.07708228 4.92274374 13.02172852 8.01025391 C12.99158409 9.90198837 12.99158409 9.90198837 12.96083069 11.8319397 C12.93363228 13.2134828 12.90632147 14.59502369 12.87890625 15.9765625 C12.85460749 17.38617193 12.83076381 18.79578928 12.80735779 20.20541382 C12.74449244 23.91761276 12.67543282 27.62967182 12.60510254 31.34173584 C12.53444117 35.1288007 12.46961107 38.91596482 12.40429688 42.703125 C12.27525297 50.13552645 12.13966806 57.56778981 12 65 C4.5 66.125 4.5 66.125 0 65 C0 43.55 0 22.1 0 0 Z " fill="#5247D6" transform="translate(300,35)"/>
<path d="M0 0 C1.093125 0.00257812 2.18625 0.00515625 3.3125 0.0078125 C4.405625 0.00523438 5.49875 0.00265625 6.625 0 C9.3125 0.1328125 9.3125 0.1328125 10.3125 1.1328125 C10.40124135 4.23532451 10.42768455 7.3154937 10.41015625 10.41796875 C10.4087413 11.34878769 10.40732635 12.27960663 10.40586853 13.2386322 C10.40025172 16.22422441 10.3876964 19.20974279 10.375 22.1953125 C10.36998716 24.21419163 10.36542388 26.23307193 10.36132812 28.25195312 C10.35027683 33.21226822 10.33300095 38.17252782 10.3125 43.1328125 C7.98563547 44.29624477 6.46528587 44.33177238 3.875 44.3828125 C3.09253906 44.40859375 2.31007813 44.434375 1.50390625 44.4609375 C-1.25683028 44.04756518 -1.96169646 43.28712051 -3.6875 41.1328125 C-4.05499268 39.26022339 -4.05499268 39.26022339 -4.04394531 37.13623047 C-4.04694641 36.33885468 -4.04994751 35.54147888 -4.05303955 34.71994019 C-4.04069275 33.86360992 -4.02834595 33.00727966 -4.015625 32.125 C-4.01375183 31.24377472 -4.01187866 30.36254944 -4.00994873 29.45462036 C-4.00322917 27.59356905 -3.98931653 25.73253183 -3.96875 23.87158203 C-3.93754473 21.01191191 -3.92777458 18.15279238 -3.921875 15.29296875 C-3.9127072 13.4869724 -3.90233214 11.68098168 -3.890625 9.875 C-3.88637512 9.01462128 -3.88212524 8.15424255 -3.87774658 7.26779175 C-3.79175519 0.18738325 -3.79175519 0.18738325 0 0 Z " fill="#4F44D7" transform="translate(451.6875,56.8671875)"/>
<path d="M0 0 C1.50046875 0.00386719 1.50046875 0.00386719 3.03125 0.0078125 C4.0315625 0.00523438 5.031875 0.00265625 6.0625 0 C8.53125 0.1328125 8.53125 0.1328125 9.53125 1.1328125 C9.61999135 4.23532451 9.64643455 7.3154937 9.62890625 10.41796875 C9.6274913 11.34878769 9.62607635 12.27960663 9.62461853 13.2386322 C9.61900172 16.22422441 9.6064464 19.20974279 9.59375 22.1953125 C9.58873716 24.21419163 9.58417388 26.23307193 9.58007812 28.25195312 C9.56902683 33.21226822 9.55175095 38.17252782 9.53125 43.1328125 C8.11581585 43.32940058 6.69880969 43.51468796 5.28125 43.6953125 C4.09789062 43.85193359 4.09789062 43.85193359 2.890625 44.01171875 C0.52592126 44.13308599 -1.2198537 43.82914507 -3.46875 43.1328125 C-3.49339574 37.16968084 -3.511584 31.20657855 -3.52368164 25.2434082 C-3.52872278 23.21312952 -3.53555557 21.18285448 -3.54418945 19.15258789 C-3.55626467 16.24103903 -3.56198034 13.329538 -3.56640625 10.41796875 C-3.57156754 9.5044313 -3.57672882 8.59089386 -3.58204651 7.64967346 C-3.58224168 5.47705823 -3.53086805 3.30453954 -3.46875 1.1328125 C-2.46875 0.1328125 -2.46875 0.1328125 0 0 Z " fill="#4E42D6" transform="translate(280.46875,56.8671875)"/>
<path d="M0 0 C0.8652832 -0.01506592 1.73056641 -0.03013184 2.62207031 -0.0456543 C6.52291712 -0.0189508 10.40162849 0.13561662 14.296875 0.34765625 C14.296875 1.33765625 14.296875 2.32765625 14.296875 3.34765625 C12.2421875 5.29296875 12.2421875 5.29296875 9.421875 7.47265625 C4.55108393 11.30644019 -0.01651262 15.33202407 -4.51171875 19.59765625 C-7.77302788 22.20205285 -10.72157364 22.47630437 -14.8125 22.4453125 C-15.56660156 22.44208984 -16.32070313 22.43886719 -17.09765625 22.43554688 C-17.87496094 22.42716797 -18.65226562 22.41878906 -19.453125 22.41015625 C-20.24589844 22.40564453 -21.03867187 22.40113281 -21.85546875 22.39648438 C-23.80472008 22.3847419 -25.75393238 22.36680771 -27.703125 22.34765625 C-27.703125 19.34765625 -27.703125 19.34765625 -26.453125 17.90893555 C-25.586875 17.17284058 -25.586875 17.17284058 -24.703125 16.421875 C-24.06793945 15.87490967 -23.43275391 15.32794434 -22.77832031 14.7644043 C-22.09350586 14.19375244 -21.40869141 13.62310059 -20.703125 13.03515625 C-20.00541992 12.45354736 -19.30771484 11.87193848 -18.58886719 11.27270508 C-17.21814571 10.13251985 -15.84548472 8.99466144 -14.47070312 7.859375 C-12.58729733 6.29750989 -12.58729733 6.29750989 -10.59375 4.16015625 C-7.42633408 1.02290619 -4.39734999 0.07062411 0 0 Z " fill="#4E40E3" transform="translate(28.703125,70.65234375)"/>
<path d="M0 0 C2.18742879 -0.02730494 4.37495907 -0.04653255 6.5625 -0.0625 C7.78066406 -0.07410156 8.99882812 -0.08570313 10.25390625 -0.09765625 C18.66342097 0.12156989 22.3964904 1.48059479 28.4375 7.125 C29.08984619 7.7137793 29.74219238 8.30255859 30.41430664 8.90917969 C31.70171153 10.07170743 32.98435976 11.2395289 34.26171875 12.41308594 C36.4460911 14.40724609 38.68799812 16.32988947 40.9375 18.25 C41.97888632 19.14324857 43.00949951 20.05063851 44 21 C44 21.33 44 21.66 44 22 C23.52304092 23.668155 23.52304092 23.668155 16.9375 18.125 C15.27355464 16.43430311 13.62848684 14.72487703 12 13 C9.81569404 11.15163897 7.56149105 9.39378061 5.3125 7.625 C2.23828125 5.1640625 2.23828125 5.1640625 0 3 C0 2.01 0 1.02 0 0 Z " fill="#5649E2" transform="translate(0,44)"/>
<path d="M0 0 C0.05407567 2.58361518 0.093707 5.16609255 0.125 7.75 C0.14175781 8.47960938 0.15851563 9.20921875 0.17578125 9.9609375 C0.23979482 17.00243028 0.23979482 17.00243028 -2 20 C-4.25 22.04296875 -4.25 22.04296875 -7 24.1875 C-11.85599497 28.03395917 -16.41530896 32.08272036 -20.90625 36.34765625 C-23 38 -23 38 -26 38 C-27.09213908 21.88647261 -27.09213908 21.88647261 -22.390625 16.4140625 C-19.6955203 13.78125341 -16.76826715 11.48213216 -13.72460938 9.26660156 C-11.15568435 7.37991087 -8.75328818 5.29826377 -6.3125 3.25 C-2.27642276 0 -2.27642276 0 0 0 Z " fill="#4F43DE" transform="translate(83,25)"/>
<path d="M0 0 C9.22759069 4.09876703 18.00172759 12.82893074 25 20 C26.2062252 23.61867559 26.10816918 26.92506251 26.0625 30.6875 C26.05798828 31.38939453 26.05347656 32.09128906 26.04882812 32.81445312 C26.03706927 34.54300538 26.01913454 36.27151365 26 38 C22.08829642 37.4373577 20.196148 35.61621219 17.375 32.9375 C13.059768 28.92362893 8.59676105 25.22994808 3.93359375 21.62890625 C1.8006748 19.83208362 1.09673347 18.88543906 0.79467773 16.12060547 C0.75802002 15.37697754 0.7213623 14.63334961 0.68359375 13.8671875 C0.62075195 12.65869141 0.62075195 12.65869141 0.55664062 11.42578125 C0.51732422 10.58402344 0.47800781 9.74226563 0.4375 8.875 C0.39431641 8.02550781 0.35113281 7.17601563 0.30664062 6.30078125 C0.20045764 4.20071777 0.09971503 2.10038052 0 0 Z " fill="#4E42E1" transform="translate(57,74)"/>
<path d="M0 0 C3.73922129 1.5813062 6.29649737 3.93230398 9.25 6.6875 C13.24589633 10.3891871 17.28345845 14.00908023 21.44140625 17.52734375 C23.45298739 19.42801064 24.89146628 21.09123429 25.22705078 23.90112305 C25.21657715 24.59761963 25.20610352 25.29411621 25.1953125 26.01171875 C25.18886719 26.76904297 25.18242188 27.52636719 25.17578125 28.30664062 C25.15902344 29.09232422 25.14226563 29.87800781 25.125 30.6875 C25.11597656 31.48478516 25.10695313 32.28207031 25.09765625 33.10351562 C25.07411585 35.069139 25.03824547 37.03460775 25 39 C21.06336996 36.47256941 17.57381456 33.87058622 14.125 30.6875 C10.29054358 27.17789919 6.41920991 23.72253256 2.49609375 20.3125 C1.64347059 19.56450684 0.80201622 18.80201622 0 18 C-0.08631874 16.65732587 -0.10706473 15.31025678 -0.09765625 13.96484375 C-0.09443359 13.15595703 -0.09121094 12.34707031 -0.08789062 11.51367188 C-0.07951172 10.66353516 -0.07113281 9.81339844 -0.0625 8.9375 C-0.05798828 8.08349609 -0.05347656 7.22949219 -0.04882812 6.34960938 C-0.03700373 4.23304337 -0.01906769 2.11651315 0 0 Z " fill="#4D41DE" transform="translate(27,25)"/>
<path d="M0 0 C4.7717103 -0.25975036 9.51785868 -0.43086631 14.296875 -0.34765625 C15.49328613 -0.32844116 15.49328613 -0.32844116 16.71386719 -0.30883789 C21.38525193 0.32222807 23.84490297 2.7161235 27 6 C28.24425431 7.08538381 29.49936418 8.15837821 30.76171875 9.22265625 C33.48875563 11.52395454 36.21102787 13.82881073 38.90234375 16.171875 C39.47460693 16.6678418 40.04687012 17.16380859 40.63647461 17.67480469 C42 19 42 19 43 21 C39.00371694 21.8880629 35.07958813 22.14851771 31 22.25 C30.01 22.27578125 29.02 22.3015625 28 22.328125 C22.16054021 21.68943409 18.3060954 18.67063372 14.125 14.75 C10.33073279 11.22552183 6.47488052 7.82213387 2.49609375 4.5078125 C1 3 1 3 0 0 Z " fill="#4D40E0" transform="translate(66,71)"/>
<path d="M0 0 C0.1083667 2.7302389 0.18746694 5.45614543 0.25 8.1875 C0.30027344 9.34088867 0.30027344 9.34088867 0.3515625 10.51757812 C0.41719055 14.34041232 0.33646565 16.44623362 -1.6875 19.77734375 C-4.12256524 22.11780341 -6.60114306 24.27861893 -9.25 26.375 C-13.43950439 29.72323845 -17.48873377 33.16118834 -21.44140625 36.78515625 C-23 38 -23 38 -25 38 C-25.13548815 35.26916098 -25.23429855 32.54508193 -25.3125 29.8125 C-25.35439453 29.04357422 -25.39628906 28.27464844 -25.43945312 27.48242188 C-25.52740294 23.38396029 -25.47298937 21.59596661 -22.8515625 18.29296875 C-21.91054688 17.53628906 -20.96953125 16.77960938 -20 16 C-18.56333984 14.65421875 -18.56333984 14.65421875 -17.09765625 13.28125 C-16.08702272 12.35298376 -15.07529379 11.42590879 -14.0625 10.5 C-13.56298828 10.03980469 -13.06347656 9.57960938 -12.54882812 9.10546875 C-2.60976012 0 -2.60976012 0 0 0 Z " fill="#4D42DF" transform="translate(52,74)"/>
<path d="M0 0 C1.54300781 -0.00386719 1.54300781 -0.00386719 3.1171875 -0.0078125 C5.899648 0.11504939 8.41739874 0.49555764 11.125 1.125 C9.58495814 5.74512557 5.96094119 7.69775104 2.1875 10.62890625 C-0.88316943 13.01998526 -0.88316943 13.01998526 -3.3125 15.71484375 C-8.65674294 21.13616711 -12.67232855 22.60784787 -20.13525391 22.73803711 C-24.39354997 22.66452024 -28.63016518 22.47080537 -32.875 22.125 C-29.14112556 18.34940629 -25.32615167 14.67826383 -21.4375 11.0625 C-20.61668945 10.2880957 -20.61668945 10.2880957 -19.77929688 9.49804688 C-13.66546771 3.81833576 -8.58674745 -0.02141334 0 0 Z " fill="#5346E1" transform="translate(97.875,43.875)"/>
<path d="M0 0 C0.33 0 0.66 0 1 0 C1.05429959 1.74965358 1.09292823 3.49979787 1.125 5.25 C1.14820312 6.22453125 1.17140625 7.1990625 1.1953125 8.203125 C0.9005468 12.42416988 -0.11965366 14.20065775 -3.25 17.04296875 C-4.1575 17.75066406 -5.065 18.45835938 -6 19.1875 C-10.85599497 23.03395917 -15.41530896 27.08272036 -19.90625 31.34765625 C-22 33 -22 33 -25 33 C-24.505 24.09 -24.505 24.09 -24 15 C-23.01 15 -22.02 15 -21 15 C-21 15.66 -21 16.32 -21 17 C-20.34 17 -19.68 17 -19 17 C-19 17.66 -19 18.32 -19 19 C-14.70700357 20.26264601 -12.12168689 19.62950412 -8 18 C-8.33 17.34 -8.66 16.68 -9 16 C-8.01 16 -7.02 16 -6 16 C-6.33 15.01 -6.66 14.02 -7 13 C-7.33 12.01 -7.66 11.02 -8 10 C-7.01 9.67 -6.02 9.34 -5 9 C-5 7.35 -5 5.7 -5 4 C-4.01 4.33 -3.02 4.66 -2 5 C-1.34 3.35 -0.68 1.7 0 0 Z " fill="#4C3FDF" transform="translate(82,30)"/>
<path d="M0 0 C1.9375 1.125 1.9375 1.125 3 3 C3.39726948 6.64163694 3.46411978 9.07176044 1.8125 12.375 C-0.50939697 14.45670073 -1.89157139 14.85197959 -5 15 C-8.81263347 13.93600927 -9.75011007 13.3748349 -12 10 C-12.4375 6.5625 -12.4375 6.5625 -12 3 C-8.31376997 -1.46815761 -5.41712863 -1.50475795 0 0 Z " fill="#4E44D3" transform="translate(379,87)"/>
<path d="M0 0 C2.0625 2.125 2.0625 2.125 3 5 C2.3125 8.75 2.3125 8.75 1 12 C-2.19730979 13.5986549 -5.52974187 13.49575116 -9 13 C-11.0625 11.4375 -11.0625 11.4375 -12 9 C-11.93439072 5.260271 -11.76345433 2.9396361 -9.375 0 C-5.85025855 -1.48410166 -3.63189024 -1.05654989 0 0 Z " fill="#4F42D5" transform="translate(460,38)"/>
<path d="M0 0 C3.3125 0.9375 3.3125 0.9375 5.3125 2.9375 C5.87463018 10.02034024 5.87463018 10.02034024 4.125 12.875 C1.73566214 14.27564633 0.09578027 14.80496284 -2.6875 14.9375 C-5.4375 13.9375 -5.4375 13.9375 -7.6875 11.9375 C-8.8125 8.5625 -8.8125 8.5625 -8.6875 4.9375 C-6.02788833 0.94808249 -4.85102141 -0.0822207 0 0 Z " fill="#4C43D3" transform="translate(284.6875,37.0625)"/>
<path d="M0 0 C5.28 0 10.56 0 16 0 C16.33 1.65 16.66 3.3 17 5 C16.01 5.495 16.01 5.495 15 6 C14.34786708 8.02463255 14.34786708 8.02463255 14 10 C9.83878671 10 8.46553396 8.20445395 5.3125 5.5625 C4.31863281 4.73878906 3.32476562 3.91507813 2.30078125 3.06640625 C1.54152344 2.38449219 0.78226562 1.70257813 0 1 C0 0.67 0 0.34 0 0 Z " fill="#4C3FDF" transform="translate(0,46)"/>
<path d="M0 0 C-0.08708669 1.45945288 -0.19526907 2.91765868 -0.3125 4.375 C-0.37050781 5.18710937 -0.42851563 5.99921875 -0.48828125 6.8359375 C-1 9 -1 9 -4 11 C-4.33 10.67 -4.66 10.34 -5 10 C-5.33 10.66 -5.66 11.32 -6 12 C-6.86625 11.62875 -6.86625 11.62875 -7.75 11.25 C-8.4925 11.1675 -9.235 11.085 -10 11 C-12.27144074 12.85432087 -12.27144074 12.85432087 -14 15 C-14 14.34 -14 13.68 -14 13 C-14.66 12.67 -15.32 12.34 -16 12 C-14.23139162 10.37251997 -12.46024324 8.74796543 -10.6875 7.125 C-10.18798828 6.66480469 -9.68847656 6.20460938 -9.17382812 5.73046875 C-2.90353261 0 -2.90353261 0 0 0 Z " fill="#5146DB" transform="translate(83,25)"/>
<path d="M0 0 C0.66 0 1.32 0 2 0 C2 3.63 2 7.26 2 11 C1.67 11 1.34 11 1 11 C0.67 9.35 0.34 7.7 0 6 C-0.99 5.67 -1.98 5.34 -3 5 C-2.6596875 5.8353125 -2.6596875 5.8353125 -2.3125 6.6875 C-1.87550935 9.92123084 -3.18801373 11.39073978 -5 14 C-5.66 13.01 -6.32 12.02 -7 11 C-8.98491642 11.26676204 -8.98491642 11.26676204 -11 12 C-11.33 12.99 -11.66 13.98 -12 15 C-12.66 15 -13.32 15 -14 15 C-13.7035748 11.83331129 -12.93550613 10.93933642 -10.56640625 8.7109375 C-9.07947266 7.55464844 -9.07947266 7.55464844 -7.5625 6.375 C-3.64826276 3.33716128 -3.64826276 3.33716128 0 0 Z " fill="#5649E5" transform="translate(50,74)"/>
<path d="M0 0 C0 0.66 0 1.32 0 2 C-2.64 2.33 -5.28 2.66 -8 3 C-7.01 2.01 -6.02 1.02 -5 0 C-7.76452033 -1.38226016 -10.0461363 -1.09525387 -13.125 -1.0625 C-14.22070312 -1.05347656 -15.31640625 -1.04445312 -16.4453125 -1.03515625 C-17.28835938 -1.02355469 -18.13140625 -1.01195312 -19 -1 C-19 0.32 -19 1.64 -19 3 C-21.64 3.33 -24.28 3.66 -27 4 C-27.33 4.99 -27.66 5.98 -28 7 C-28.66 6.67 -29.32 6.34 -30 6 C-27.97240084 1.12336407 -24.54487311 -0.63914179 -20 -3 C-13.31636583 -5.39925329 -5.91773456 -3.48994602 0 0 Z " fill="#5A4DD7" transform="translate(424,60)"/>
<path d="M0 0 C3.87733625 1.6132652 6.51726426 4.14949362 9.5625 7 C12.32029678 9.57444258 14.85954694 11.90636463 18 14 C17.67 14.66 17.34 15.32 17 16 C14.525 15.01 14.525 15.01 12 14 C12 14.66 12 15.32 12 16 C10 15 8 14 6 13 C5.896875 11.948125 5.79375 10.89625 5.6875 9.8125 C4.8260549 5.03539535 3.28812447 3.45674624 0 0 Z " fill="#574CDF" transform="translate(27,25)"/>
<path d="M0 0 C0.99 0 1.98 0 3 0 C3 0.66 3 1.32 3 2 C2.34 2 1.68 2 1 2 C1 5.3 1 8.6 1 12 C5.09305456 10.34703566 8.58983503 8.86453858 12 6 C12.66 6.33 13.32 6.66 14 7 C12.07063642 8.842617 10.13244033 10.67395452 8.1875 12.5 C7.36668945 13.28697266 7.36668945 13.28697266 6.52929688 14.08984375 C2.33984375 18 2.33984375 18 -1 18 C-0.505 9.09 -0.505 9.09 0 0 Z " fill="#4739DF" transform="translate(58,45)"/>
<path d="M0 0 C0 3 0 3 -2.01171875 5.15625 C-3.33623047 6.31640625 -3.33623047 6.31640625 -4.6875 7.5 C-5.55761719 8.2734375 -6.42773438 9.046875 -7.32421875 9.84375 C-9.78914695 11.8300863 -12.24479313 13.45112695 -15 15 C-15 14.01 -15 13.02 -15 12 C-14.34 12 -13.68 12 -13 12 C-12.7018576 8.2236068 -12.7018576 8.2236068 -14 6 C-12.906875 5.896875 -11.81375 5.79375 -10.6875 5.6875 C-6.93600108 4.988068 -6.30164205 4.74005005 -4 2 C-1.8125 0.8125 -1.8125 0.8125 0 0 Z " fill="#4935E2" transform="translate(50,91)"/>
<path d="M0 0 C0.33 0.99 0.66 1.98 1 3 C0.34 3 -0.32 3 -1 3 C-1 4.98 -1 6.96 -1 9 C-1.99 9.495 -1.99 9.495 -3 10 C-3.33 9.01 -3.66 8.02 -4 7 C-5.485 9.475 -5.485 9.475 -7 12 C-7.99 11.67 -8.98 11.34 -10 11 C-8.55218207 7.55571735 -6.72305391 5.63869038 -3.875 3.25 C-3.15054687 2.63640625 -2.42609375 2.0228125 -1.6796875 1.390625 C-0.84824219 0.70226562 -0.84824219 0.70226562 0 0 Z " fill="#5449E7" transform="translate(16,77)"/>
<path d="M0 0 C0.26218749 3.14624993 0.24754367 4.61837017 -1.5 7.3125 C-1.995 7.869375 -2.49 8.42625 -3 9 C-3 8.01 -3 7.02 -3 6 C-5.31 6.66 -7.62 7.32 -10 8 C-3.56521739 0 -3.56521739 0 0 0 Z " fill="#6155DF" transform="translate(83,25)"/>
<path d="M0 0 C1.31611677 0.95336021 2.62778961 1.91285774 3.9375 2.875 C4.66839844 3.40867188 5.39929687 3.94234375 6.15234375 4.4921875 C8 6 8 6 9 8 C4.2482602 7.56802365 2.07999946 6.67230705 -1 3 C-0.67 2.01 -0.34 1.02 0 0 Z " fill="#4B3DDF" transform="translate(34,57)"/>
<path d="M0 0 C1.07894531 0.12761719 2.15789063 0.25523438 3.26953125 0.38671875 C4.35621094 0.50660156 5.44289063 0.62648438 6.5625 0.75 C7.39394531 0.85699219 8.22539062 0.96398437 9.08203125 1.07421875 C9.08203125 1.73421875 9.08203125 2.39421875 9.08203125 3.07421875 C4.13203125 3.07421875 -0.81796875 3.07421875 -5.91796875 3.07421875 C-2.91796875 0.07421875 -2.91796875 0.07421875 0 0 Z " fill="#4B3ADE" transform="translate(6.91796875,89.92578125)"/>
<path d="M0 0 C0.66 0.33 1.32 0.66 2 1 C2.625 3.0625 2.625 3.0625 3 5 C2.360625 5.12375 1.72125 5.2475 1.0625 5.375 C0.0415625 5.684375 0.0415625 5.684375 -1 6 C-1.33 6.66 -1.66 7.32 -2 8 C-3.32 8 -4.64 8 -6 8 C-6.33 7.34 -6.66 6.68 -7 6 C-6.21625 5.7525 -5.4325 5.505 -4.625 5.25 C-1.67682892 3.84610901 -1.0975223 2.99324263 0 0 Z " fill="#4B3CD4" transform="translate(352,83)"/>
<path d="M0 0 C0.33 0.66 0.66 1.32 1 2 C1.639375 2.12375 2.27875 2.2475 2.9375 2.375 C5 3 5 3 6.25 5.0625 C6.4975 5.701875 6.745 6.34125 7 7 C7.66 7 8.32 7 9 7 C9 7.66 9 8.32 9 9 C4.40693504 7.5140084 1.56430755 5.14985318 -2 2 C-1.34 1.34 -0.68 0.68 0 0 Z " fill="#4737E1" transform="translate(16,57)"/>
<path d="M0 0 C1.2989839 0.90626784 2.58893167 1.82549537 3.875 2.75 C4.59429687 3.26046875 5.31359375 3.7709375 6.0546875 4.296875 C8.08570565 6.07503547 8.97855012 7.52701607 10 10 C7.08482708 8.92598892 5.22189824 8.22189824 3 6 C2.34 5.67 1.68 5.34 1 5 C0.375 2.4375 0.375 2.4375 0 0 Z " fill="#4136DB" transform="translate(72,86)"/>
<path d="M0 0 C0 3.63 0 7.26 0 11 C-0.33 11 -0.66 11 -1 11 C-1.0825 10.21625 -1.165 9.4325 -1.25 8.625 C-1.72806339 5.85250896 -1.72806339 5.85250896 -4.0625 4.6875 C-4.701875 4.460625 -5.34125 4.23375 -6 4 C-2.25 0 -2.25 0 0 0 Z " fill="#5B4EDC" transform="translate(52,74)"/>
<path d="M0 0 C3.63 0 7.26 0 11 0 C11 0.66 11 1.32 11 2 C7.7 2 4.4 2 1 2 C1 2.66 1 3.32 1 4 C0.34 4 -0.32 4 -1 4 C-0.67 2.68 -0.34 1.36 0 0 Z " fill="#4B37D3" transform="translate(278,57)"/>
<path d="M0 0 C0.99 0 1.98 0 3 0 C2.5359375 1.1446875 2.5359375 1.1446875 2.0625 2.3125 C1.32106407 4.18789677 0.63771783 6.08684652 0 8 C-0.99 8 -1.98 8 -3 8 C-2.25 2.25 -2.25 2.25 0 0 Z " fill="#5847D5" transform="translate(279,38)"/>
<path d="M0 0 C3.3 0 6.6 0 10 0 C9.67 0.66 9.34 1.32 9 2 C7.68 2 6.36 2 5 2 C4.67 2.99 4.34 3.98 4 5 C4 4.01 4 3.02 4 2 C3.34 2 2.68 2 2 2 C2 2.66 2 3.32 2 4 C1.34 4 0.68 4 0 4 C0 2.68 0 1.36 0 0 Z " fill="#5935EA" transform="translate(33,71)"/>
<path d="M0 0 C0.66 0.33 1.32 0.66 2 1 C2.26785714 9.03571429 2.26785714 9.03571429 0 13 C-0.19551338 11.39679026 -0.38111983 9.79237014 -0.5625 8.1875 C-0.71912109 6.84751953 -0.71912109 6.84751953 -0.87890625 5.48046875 C-1 3 -1 3 0 0 Z " fill="#483CCE" transform="translate(364,74)"/>
<path d="M0 0 C-0.25 2.875 -0.25 2.875 -1 6 C-3.0625 7.375 -3.0625 7.375 -5 8 C-5 7.34 -5 6.68 -5 6 C-5.66 5.67 -6.32 5.34 -7 5 C-2.25 0 -2.25 0 0 0 Z " fill="#5E51DE" transform="translate(66,39)"/>
<path d="M0 0 C0.66 0.33 1.32 0.66 2 1 C-1.3 3.97 -4.6 6.94 -8 10 C-8.33 9.34 -8.66 8.68 -9 8 C-6.14723863 5.06799526 -3.34920216 2.35684596 0 0 Z " fill="#4030DE" transform="translate(70,51)"/>
<path d="M0 0 C0.99 0.66 1.98 1.32 3 2 C1.95125002 4.62187494 1.35068687 5.79371361 -1.125 7.25 C-1.74375 7.4975 -2.3625 7.745 -3 8 C-2.690625 7.236875 -2.38125 6.47375 -2.0625 5.6875 C-1.32106407 3.81210323 -0.63771783 1.91315348 0 0 Z " fill="#4A40CE" transform="translate(220,90)"/>
<path d="M0 0 C2.10546875 0.41796875 2.10546875 0.41796875 4 1 C2.90716423 2.03295436 1.80029421 3.05107835 0.6875 4.0625 C0.07261719 4.63097656 -0.54226562 5.19945313 -1.17578125 5.78515625 C-1.77777344 6.18605469 -2.37976563 6.58695312 -3 7 C-3.99 6.67 -4.98 6.34 -6 6 C-5.34 5.67 -4.68 5.34 -4 5 C-3.67 4.34 -3.34 3.68 -3 3 C-1.6875 1.3125 -1.6875 1.3125 0 0 Z " fill="#4233E5" transform="translate(25,85)"/>
<path d="M0 0 C4.67692308 1.47692308 4.67692308 1.47692308 6.3125 4.125 C6.539375 4.74375 6.76625 5.3625 7 6 C4 6 4 6 1.8125 4.125 C0 2 0 2 0 0 Z " fill="#493BDF" transform="translate(66,71)"/>
<path d="M0 0 C-4.75 4 -4.75 4 -7 4 C-7 3.34 -7 2.68 -7 2 C-7.66 1.67 -8.32 1.34 -9 1 C-6.04335481 -0.4783226 -3.25770263 -0.06032783 0 0 Z " fill="#5130E5" transform="translate(85,71)"/>
<path d="M0 0 C0.66 0.33 1.32 0.66 2 1 C0.29374499 3.78388975 -0.47626739 4.85384206 -3.6875 5.75 C-4.8321875 5.87375 -4.8321875 5.87375 -6 6 C-6 5.34 -6 4.68 -6 4 C-4.03852126 2.61061923 -2.03833424 1.2739589 0 0 Z " fill="#5E53E0" transform="translate(89,45)"/>
<path d="M0 0 C-1.07401108 2.91517292 -1.77810176 4.77810176 -4 7 C-4 6.34 -4 5.68 -4 5 C-4.66 4.67 -5.32 4.34 -6 4 C-2.25 0 -2.25 0 0 0 Z " fill="#6155E5" transform="translate(73,33)"/>
<path d="M0 0 C4.67692308 1.47692308 4.67692308 1.47692308 6.3125 4.125 C6.539375 4.74375 6.76625 5.3625 7 6 C4 6 4 6 1.8125 4.125 C0 2 0 2 0 0 Z " fill="#4938E0" transform="translate(74,78)"/>
<path d="M0 0 C0.99 0.33 1.98 0.66 3 1 C3 1.66 3 2.32 3 3 C5.475 3.99 5.475 3.99 8 5 C7.34 5.66 6.68 6.32 6 7 C3.95880212 5.38405168 1.95927063 3.7143618 0 2 C0 1.34 0 0.68 0 0 Z " fill="#4E36E7" transform="translate(38,51)"/>
<path d="M0 0 C0.66 0.66 1.32 1.32 2 2 C0.35 3.65 -1.3 5.3 -3 7 C-3.66 6.67 -4.32 6.34 -5 6 C-5 5.01 -5 4.02 -5 3 C-3.35 2.67 -1.7 2.34 0 2 C0 1.34 0 0.68 0 0 Z " fill="#4232D8" transform="translate(78,43)"/>
</svg>
